<svg width="96" height="28" fill="none" xmlns="http://www.w3.org/2000/svg"><path fill-rule="evenodd" clip-rule="evenodd" d="M87.8317 5.78464c.3847.00778.767-.06128 1.1246-.20308.3577-.14181.6835-.35355.9583-.62281.2748-.26925.4931-.59061.6422-.94528.1491-.35468.2259-.73552.226-1.12025 0-.38473-.0766-.76565-.2256-1.12039-.1489-.35473-.3671-.67619-.6418-.945556-.2747-.269367-.6004-.481191-.958-.623143-.3576-.1419522-.7399-.21118479-1.1245-.2035637-.757.0151514-1.4779.3265047-2.0079.8672137-.53.540709-.8268 1.267679-.8268 2.024819 0 .75714.2968 1.48412.8268 2.02483s1.2509.85206 2.0079.86721h-.0012zm-7.7595 2.49743v4.24283h5.3652v14.9163h4.7874V12.5249h5.3664V8.28207h-15.519zM38.3051 5.78464c.3798.00009.7559-.07462 1.1069-.21992.351-.14529.6699-.35835.9385-.6269.2686-.26856.4817-.58739.6271-.93831.1454-.35092.2202-.72706.2202-1.10691 0-.37984-.0748-.75598-.2202-1.1069-.1454-.35093-.3585-.66975-.6271-.938309S39.763.36578 39.412.220484c-.351-.1452953-.7271-.2200113-1.1069-.2199167-.757.0151514-1.4779.3265047-2.0079.8672137-.53.540709-.8269 1.267679-.8269 2.024819 0 .75714.2969 1.48412.8269 2.02483s1.2509.85206 2.0079.86721zm-7.7607 6.73906h5.3664v14.9175h4.7862V12.5249h5.3676V8.28207h-15.519v4.24283l-.0012-.0012zm41.3851 14.9175h4.7885V8.29398h-4.7873V27.4412h-.0012zm-9.6863-8.6162c0 2.5533-1.438 5.1849-4.4682 5.1849-3.0718 0-3.5903-2.8309-3.5903-5.1054V8.29398h-4.7874V20.2607c0 3.9106 2.074 7.7393 7.0619 7.7393 2.8309 0 5.1053-1.7156 5.943-3.6306h.0793v3.0718h4.5478V8.29398h-4.7862l.0001 10.53102zM21.0456 7.73515c-2.8321 0-5.1054 1.71565-5.943 3.63065h-.0808V8.29398h-4.5465V27.4412h4.7862V16.9101c0-2.5533 1.4368-5.1861 4.4682-5.1861 3.0706 0 3.5903 2.8322 3.5903 5.1066v10.6106h4.7862V15.4721c0-3.9082-2.0728-7.73811-7.0607-7.73811l.0001.00116zM.784302 27.4412H5.57051V8.29398H.784302V27.4412z" fill="#0077C5"/></svg>