<svg xmlns="http://www.w3.org/2000/svg" id="svg8" width="613" height="162" version="1.1" viewBox="0 0 162.19 42.862"><defs id="defs2"><path id="vector-svg@1x-a" d="M24.218 17H.792V.539h23.426z"/><path id="vector-svg@1x-c" d="M1.104 1.319H0V0h1.104z"/><path id="vector-svg@1x-e" d="M1.701 1.319H.306V0h1.395z"/><linearGradient id="paint0_linear" x1="40.129" x2="4.791" y1="43.007" y2="5.112" gradientUnits="userSpaceOnUse"><stop id="stop821" stop-color="#515254"/><stop id="stop823" offset=".192" stop-color="#48494B"/><stop id="stop825" offset=".503" stop-color="#313233"/><stop id="stop827" offset=".893" stop-color="#0C0C0C"/><stop id="stop829" offset="1"/></linearGradient><linearGradient id="linear-gradient" x1=".036" x2="36.133" y1="36.133" y2=".036" gradientUnits="userSpaceOnUse"><stop id="stop874" offset="0" stop-color="#0074f5"/><stop id="stop876" offset="1" stop-color="#03aaff"/></linearGradient><style id="style851">.cls-1{fill:#231f20}.cls-2{fill:#0080c5}.st0{fill:#e16a2d}.st1{fill:#555759}.st2{fill:#fff}.st3{fill:#e16b2a}</style></defs><g id="layer1" transform="translate(-54.182 -93.255)"><g id="g1256" transform="matrix(1.9541 0 0 1.93652 53.205 91.384)"><path id="path1222" d="M24.7 7.1c-4.4 0-8 3.6-8 8s3.6 8 8 8 8-3.6 8-8-3.6-8-8-8zm3.9 7.9c0 2.2-1.7 4-3.8 4-2.1 0-3.8-1.8-3.8-4s1.7-4 3.8-4c2.1 0 3.8 1.8 3.8 4zm24.1-7.6c-.1-.1-.2-.1-.3-.1h-3.2c-.2 0-.4.2-.4.4v14.5c0 .1 0 .2.1.3.1.1.2.1.3.1h3.2c.2 0 .4-.2.4-.4V7.7c0-.1 0-.2-.1-.3zm-1.9-2c1.2 0 2.2-1 2.2-2.2C53.1 2 52 1 50.8 1c-1.2 0-2.2 1-2.2 2.2 0 1.3 1 2.2 2.2 2.2zm-4.3-4.1H34.8c-.2 0-.4.2-.4.4v20.5c0 .1 0 .2.1.3.1.1.2.1.3.1H38c.2 0 .4-.2.4-.4v-8.3h7.2c.1 0 .2 0 .3-.1.1-.1.1-.2.1-.3v-3c0-.2-.2-.4-.4-.4h-7.2v-5h8.1c.1 0 .2 0 .3-.1.1-.1.1-.2.1-.3v-3c0-.2-.2-.4-.4-.4ZM9.2 10.2C6 8.8 5 8.2 5 7c0-1.6 1.5-2.1 2.9-2.1 1.5 0 3.1.8 3.1 3 0 .2.1.3.3.3h3.5c.1-.1.2-.2.2-.3 0-4-2.9-6.9-7.1-6.9C3.7 1 1 3.4 1 7c0 4.3 3.2 5.6 6.3 6.8l.2.1c2.9 1.1 3.9 1.6 3.9 3 0 1.9-2 2.2-3.1 2.2-2.1 0-3.7-1.5-3.7-3.5v-.2c0-.2-.1-.3-.3-.3H.8c-.1 0-.3.1-.3.3v.3c0 4.4 3.2 7.4 7.7 7.4 4.3 0 7.2-2.5 7.2-6.1.1-3.7-1.8-5-6.2-6.8zM83.5 22c0 .6-.4 1-1 1s-1-.4-1-1 .4-1 1-1 1 .4 1 1zm-1.8 0c0 .5.3.8.8.8s.8-.3.8-.8-.3-.8-.8-.8-.8.3-.8.8zm1.2-.2c0 .1-.1.2-.2.3l.2.4h-.3l-.2-.4h-.1v.4h-.2v-1h.4c.2 0 .4.1.4.3zm-.5-.1v.3h.1c.1 0 .2-.1.2-.1 0-.1-.1-.1-.2-.1h-.1ZM78.3 1.9c1.4 0 2.5 1.1 2.5 2.5s-1.1 2.5-2.5 2.5-2.5-1.1-2.5-2.5 1.1-2.5 2.5-2.5m0-.9c-1.9 0-3.5 1.6-3.5 3.5S76.4 8 78.3 8s3.5-1.6 3.5-3.5S80.2 1 78.3 1Z" style="fill:#00a2c7"/><circle id="ellipse1224" cx="78.3" cy="12" r="3.5" style="fill:#00a2c7" transform="rotate(-28.538 78.28 12.007)"/><circle id="ellipse1226" cx="78.3" cy="19.5" r="3.5" style="fill:#00a2c7" transform="rotate(-28.538 78.278 19.517)"/><path id="path1228" d="M70.8 9.5c.7 0 1.3.3 1.8.7.5.5.7 1.1.7 1.8 0 1.4-1.1 2.5-2.5 2.5-.7 0-1.3-.3-1.8-.7-.5-.5-.7-1.1-.7-1.8-.1-1.4 1.1-2.5 2.5-2.5m0-1c-1.9 0-3.5 1.6-3.5 3.5s1.6 3.5 3.5 3.5 3.5-1.6 3.5-3.5-1.6-3.5-3.5-3.5z" style="fill:#00a2c7"/><circle id="ellipse1230" cx="63.3" cy="12" r="3.5" style="fill:#00a2c7" transform="rotate(-66.11 63.267 12.004)"/><circle id="ellipse1232" cx="70.8" cy="4.5" r="3.5" style="fill:#00a2c7" transform="rotate(-66.11 70.777 4.494)"/><circle id="ellipse1234" cx="63.3" cy="4.5" r="3.5" style="fill:#00a2c7" transform="rotate(-66.11 63.267 4.494)"/><circle id="ellipse1236" cx="70.8" cy="19.5" r="3.5" style="fill:#00a2c7" transform="rotate(-66.11 70.777 19.514)"/><path id="path1238" d="M63.3 17c.7 0 1.3.3 1.8.7.5.5.7 1.1.7 1.8 0 1.4-1.1 2.5-2.5 2.5s-2.5-1.1-2.5-2.5c-.1-1.4 1.1-2.5 2.5-2.5m0-1c-1.9 0-3.5 1.6-3.5 3.5s1.6 3.5 3.5 3.5 3.5-1.6 3.5-3.5-1.6-3.5-3.5-3.5z" style="fill:#00a2c7"/></g></g></svg>